<?xml version="1.0" standalone="no"?>
<!DOCTYPE svg PUBLIC "-//W3C//DTD SVG 20010904//EN"
 "http://www.w3.org/TR/2001/REC-SVG-20010904/DTD/svg10.dtd">
<svg version="1.0" xmlns="http://www.w3.org/2000/svg"
 width="180.000000pt" height="180.000000pt" viewBox="0 0 180.000000 180.000000"
 preserveAspectRatio="xMidYMid meet">
<metadata>
Created by potrace 1.14, written by Peter Selinger 2001-2017
</metadata>
<g transform="translate(0.000000,180.000000) scale(0.100000,-0.100000)"
fill="#000000" stroke="none">
<path d="M0 900 l0 -900 900 0 900 0 0 900 0 900 -900 0 -900 0 0 -900z m1480
190 c18 -18 20 -33 20 -190 0 -157 -2 -172 -20 -190 -20 -20 -33 -20 -575 -20
-542 0 -555 0 -575 20 -18 18 -20 33 -20 190 0 157 2 172 20 190 20 20 33 20
575 20 542 0 555 0 575 -20z"/>
<path d="M1111 964 c-30 -38 -28 -95 4 -131 18 -21 24 -24 25 -12 0 9 -7 22
-15 29 -22 18 -19 80 6 106 12 13 16 24 11 28 -6 3 -20 -6 -31 -20z"/>
<path d="M1217 983 c-4 -6 2 -18 13 -28 27 -25 26 -82 -2 -112 -18 -19 -19
-23 -5 -23 24 0 47 40 47 82 0 39 -41 101 -53 81z"/>
<path d="M840 971 c0 -5 7 -11 15 -15 21 -7 21 -86 1 -86 -8 0 -18 -4 -21 -10
-4 -6 13 -10 44 -10 28 0 51 5 51 10 0 6 -9 10 -20 10 -18 0 -20 7 -20 55 0
52 -1 55 -25 55 -14 0 -25 -4 -25 -9z"/>
<path d="M599 919 c-8 -16 -8 -28 0 -46 9 -20 17 -24 46 -21 20 2 34 8 33 13
-2 6 -13 9 -26 7 -26 -3 -41 23 -23 41 8 8 14 8 23 -1 18 -18 28 -15 28 8 0
30 -65 29 -81 -1z"/>
<path d="M720 931 c0 -6 12 -11 28 -12 26 -1 26 -1 -6 -10 -26 -8 -33 -14 -30
-32 3 -19 10 -22 50 -24 26 -1 50 3 53 8 4 5 2 9 -4 9 -5 0 -11 15 -13 33 -3
29 -6 32 -40 35 -22 2 -38 -1 -38 -7z m50 -51 c0 -5 -7 -10 -15 -10 -8 0 -15
5 -15 10 0 6 7 10 15 10 8 0 15 -4 15 -10z"/>
<path d="M959 919 c-8 -16 -8 -28 0 -46 9 -20 17 -24 46 -21 20 2 34 8 33 13
-2 6 -13 9 -26 7 -26 -3 -41 23 -23 41 8 8 14 8 23 -1 18 -18 28 -15 28 8 0
30 -65 29 -81 -1z"/>
</g>
</svg>
