<svg data-name="Layer 1" xmlns="http://www.w3.org/2000/svg" viewBox="0 0 116.4 90"><path d="M107.8 19v28h-4V19z"/><path d="M105.8 55.6 95.2 45h21.2l-10.6 10.6zM105.8 10.4 116.4 21H95.2l10.6-10.6zM16 77h57v4H16z"/><path d="M81.6 79 71 89.6V68.4L81.6 79zM10.4 79 21 68.4v21.2L10.4 79zM0 4h92v4H0zM0 58h92v4H0z"/><path d="M4 0h4v66H4zM84 0h4v66h-4zM4 70h4v4H4zM4 78h4v4H4zM4 86h4v4H4zM84 70h4v4h-4zM84 78h4v4h-4zM84 86h4v4h-4zM96 62v-4h4v4zM104 62v-4h4v4zM112 62v-4h4v4zM96 8V4h4v4zM104 8V4h4v4zM112 8V4h4v4z"/></svg>